HIERARCHY
ROOT Hips
{
	OFFSET 0.000000 0.000000 0.000000
	CHANNELS 6 Xposition Yposition Zposition Xrotation Yrotation Zrotation
	JOINT LeftUpLeg_virtual
	{
		OFFSET 0.000000 0.000000 0.000000
		CHANNELS 3 Xrotation Yrotation Zrotation
		JOINT LeftUpLeg
		{
			OFFSET 10.205400 -3.823500 0.155100
			CHANNELS 3 Xrotation Yrotation Zrotation
			JOINT LeftLeg
			{
				OFFSET 0.708757 -12.982077 0.567790
				CHANNELS 3 Xrotation Yrotation Zrotation
				JOINT LeftFoot
				{
					OFFSET -0.708756 -10.717838 -2.184338
					CHANNELS 3 Xrotation Yrotation Zrotation
					JOINT LeftToeBase
					{
						OFFSET 0.108149 -7.191104 7.560241
						CHANNELS 3 Xrotation Yrotation Zrotation
						JOINT LeftToe_End
						{
							OFFSET 0.070230 0.081724 4.490308
							CHANNELS 3 Xrotation Yrotation Zrotation
							End Site
							{
								OFFSET 0 0 0
							}
						}
					}
				}
			}
		}
	}
	JOINT RightUpLeg_virtual
	{
		OFFSET 0.000000 0.000000 0.000000
		CHANNELS 3 Xrotation Yrotation Zrotation
		JOINT RightUpLeg
		{
			OFFSET -10.205400 -3.823500 0.005500
			CHANNELS 3 Xrotation Yrotation Zrotation
			JOINT RightLeg
			{
				OFFSET -0.708756 -12.982134 0.610632
				CHANNELS 3 Xrotation Yrotation Zrotation
				JOINT RightFoot
				{
					OFFSET 0.708754 -10.717769 -1.945823
					CHANNELS 3 Xrotation Yrotation Zrotation
					JOINT RightToeBase
					{
						OFFSET -0.108140 -7.191069 7.372968
						CHANNELS 3 Xrotation Yrotation Zrotation
						JOINT RightToe_End
						{
							OFFSET -0.070227 0.081735 4.479403
							CHANNELS 3 Xrotation Yrotation Zrotation
							End Site
							{
								OFFSET 0 0 0
							}
						}
					}
				}
			}
		}
	}
	JOINT Spine_virtual
	{
		OFFSET 0.000000 0.000000 0.000000
		CHANNELS 3 Xrotation Yrotation Zrotation
		JOINT Spine
		{
			OFFSET 0.000000 6.876099 0.125700
			CHANNELS 3 Xrotation Yrotation Zrotation
			JOINT Spine1
			{
				OFFSET 0.000000 5.730043 0.104720
				CHANNELS 3 Xrotation Yrotation Zrotation
				JOINT Spine1_split
				{
					OFFSET 0.000000 5.730043 0.104720
					CHANNELS 3 Xrotation Yrotation Zrotation
					JOINT Spine2
					{
						OFFSET 0.000000 5.730043 0.104720
						CHANNELS 3 Xrotation Yrotation Zrotation
						JOINT Neck_virtual
						{
							OFFSET 0.000000 0.000000 0.000000
							CHANNELS 3 Xrotation Yrotation Zrotation
							JOINT Neck
							{
								OFFSET 0.000000 10.314075 0.188496
								CHANNELS 3 Xrotation Yrotation Zrotation
								JOINT Head
								{
									OFFSET 0.000000 7.643700 -2.377400
									CHANNELS 3 Xrotation Yrotation Zrotation
									JOINT HeadTop_End
									{
										OFFSET 0.000000 43.788605 -13.619600
										CHANNELS 3 Xrotation Yrotation Zrotation
										End Site
										{
											OFFSET 0 0 0
										}
									}
								}
							}
						}
						JOINT LeftShoulder_virtual
						{
							OFFSET 0.000000 0.000000 0.000000
							CHANNELS 3 Xrotation Yrotation Zrotation
							JOINT LeftShoulder
							{
								OFFSET 2.196100 4.412489 0.087492
								CHANNELS 3 Xrotation Yrotation Zrotation
								JOINT LeftShoulder_split
								{
									OFFSET 2.196100 4.412489 0.087492
									CHANNELS 3 Xrotation Yrotation Zrotation
									JOINT LeftArm
									{
										OFFSET 8.771219 -2.981674 -0.026999
										CHANNELS 3 Xrotation Yrotation Zrotation
										JOINT LeftForeArm
										{
											OFFSET 8.512804 0.000000 -0.000000
											CHANNELS 3 Xrotation Yrotation Zrotation
											JOINT LeftHand
											{
												OFFSET 18.484802 0.000000 -0.000000
												CHANNELS 3 Xrotation Yrotation Zrotation
												End Site
												{
													OFFSET 0 0 0
												}
											}
										}
									}
								}
							}
						}
						JOINT RightShoulder_virtual
						{
							OFFSET 0.000000 0.000000 0.000000
							CHANNELS 3 Xrotation Yrotation Zrotation
							JOINT RightShoulder
							{
								OFFSET -2.196100 4.412496 0.070690
								CHANNELS 3 Xrotation Yrotation Zrotation
								JOINT RightShoulder_split
								{
									OFFSET -2.196100 4.412496 0.070690
									CHANNELS 3 Xrotation Yrotation Zrotation
									JOINT RightArm
									{
										OFFSET -8.771282 -2.981682 -0.094208
										CHANNELS 3 Xrotation Yrotation Zrotation
										JOINT RightForeArm
										{
											OFFSET -8.494598 0.000000 0.000000
											CHANNELS 3 Xrotation Yrotation Zrotation
											JOINT RightHand
											{
												OFFSET -18.483803 0.000000 0.000001
												CHANNELS 3 Xrotation Yrotation Zrotation
												End Site
												{
													OFFSET 0 0 0
												}
											}
										}
									}
								}
							}
						}
					}
				}
			}
		}
	}
}
MOTION
Frames: 11
Frame Time: 0.03333333
-1.667016 28.711546 30.187222 0.000000 0.000000 0.000000 25.719062 16.431656 -7.872321 13.741770 10.857747 2.171576 6.423317 13.899745 3.406802 -24.102382 12.953051 -31.421589 -18.461255 -5.731603 2.925156 0.000000 0.000000 0.000000 26.483106 15.285968 -7.723472 -73.464866 -11.054578 5.112568 67.460754 -35.804289 -7.844042 -5.565541 1.631228 -0.792571 -10.004321 9.429781 6.884516 0.000000 0.000000 0.000000 29.014715 9.837261 -6.995558 5.247356 0.152557 2.274624 8.747201 -0.552473 3.818340 1.210224 -1.508791 1.473188 0.000000 0.000000 0.000000 10.489063 0.020380 3.257304 -6.935560 -0.878926 -0.271248 -6.449378 6.304345 2.975718 0.000000 0.000000 0.000000 11.878900 -0.466166 3.407188 2.384413 -20.103974 2.940911 2.064492 -1.434245 -4.006225 -40.226334 -22.452007 -40.095779 108.747642 -63.641961 120.266722 0.000000 0.000000 0.000000 10.589525 0.125080 3.887504 3.274456 11.187151 -1.162608 2.848117 7.807281 0.753114 -45.911224 15.032857 35.214154 121.798078 45.583842 -143.260131 0.000000 0.000000 0.000000 
-1.682458 28.621958 30.335318 0.000000 0.000000 0.000000 25.983324 16.530733 -7.909677 13.081852 10.907449 2.403735 7.438098 13.888287 3.359623 -24.372750 13.050150 -31.627041 -19.437648 -5.885790 2.978724 0.000000 0.000000 0.000000 26.818617 15.375948 -7.774459 -74.386245 -11.428818 4.998704 68.435012 -35.702444 -8.045270 -5.701755 1.807132 -0.685287 -10.832270 9.181384 7.085281 0.000000 0.000000 0.000000 29.283770 9.952072 -7.057920 5.236973 0.241017 2.330746 8.262713 -0.520556 3.803034 1.211116 -1.530171 1.459288 0.000000 0.000000 0.000000 10.035018 0.045650 3.260376 -7.142330 -0.842588 -0.373503 -6.463319 6.092211 2.975377 0.000000 0.000000 0.000000 11.380043 -0.428371 3.392491 2.507038 -20.176922 3.377336 2.108236 -1.437176 -3.930490 -40.679886 -22.611662 -39.976657 106.937021 -64.141022 118.530406 0.000000 0.000000 0.000000 10.117494 0.155354 3.864517 3.331082 10.968655 -1.600653 2.884161 7.797578 0.702370 -46.632843 15.053324 35.721620 121.325757 45.990816 -142.543015 0.000000 0.000000 0.000000 
-1.698501 28.531181 30.484043 0.000000 0.000000 0.000000 26.263327 16.617043 -7.951921 12.399187 10.940401 2.666140 8.424897 13.911921 3.303088 -24.639474 13.159759 -31.843821 -20.324339 -6.037035 3.011272 0.000000 0.000000 0.000000 27.183953 15.451237 -7.831482 -75.260345 -11.862515 4.840548 69.217602 -35.606876 -8.306644 -5.849043 1.991178 -0.489496 -11.567463 8.984263 7.230178 0.000000 0.000000 0.000000 29.576198 10.044468 -7.121068 5.255002 0.316288 2.371609 7.753112 -0.485782 3.794851 1.216839 -1.539515 1.453456 0.000000 0.000000 0.000000 9.549679 0.069455 3.267270 -7.355427 -0.790785 -0.492415 -6.502451 5.903987 2.980042 0.000000 0.000000 0.000000 10.853102 -0.391253 3.381438 2.617684 -20.232325 3.788343 2.152411 -1.452376 -3.847575 -41.261968 -22.845168 -39.941341 104.733684 -64.638841 116.371342 0.000000 0.000000 0.000000 9.614833 0.186037 3.845618 3.382551 10.743135 -2.061479 2.942896 7.799127 0.662271 -47.452377 15.015377 36.241134 120.725752 46.475821 -141.697629 0.000000 0.000000 0.000000 
-1.711841 28.433613 30.631697 0.000000 0.000000 0.000000 26.579847 16.672623 -8.009114 11.698024 10.945576 2.976930 9.396313 13.953999 3.234909 -24.898401 13.275194 -32.103863 -21.139683 -6.190476 3.038727 0.000000 0.000000 0.000000 27.574975 15.513354 -7.904331 -76.077611 -12.362548 4.654727 69.894746 -35.542611 -8.578095 -6.109973 2.170822 -0.306125 -12.161538 8.832381 7.344666 0.000000 0.000000 0.000000 29.899594 10.096049 -7.183178 5.297438 0.379932 2.395058 7.221699 -0.450215 3.786732 1.216148 -1.539725 1.455003 0.000000 0.000000 0.000000 9.025884 0.090835 3.269346 -7.557516 -0.724924 -0.619802 -6.577157 5.743066 3.000636 0.000000 0.000000 0.000000 10.297533 -0.357865 3.367172 2.716642 -20.270299 4.192561 2.189098 -1.471559 -3.773677 -41.941777 -23.161633 -39.979105 102.204963 -65.103560 113.852485 0.000000 0.000000 0.000000 9.076931 0.215190 3.824357 3.431118 10.521055 -2.532046 3.017135 7.795375 0.630670 -48.326413 14.867295 36.771532 120.000290 47.034137 -140.736704 0.000000 0.000000 0.000000 
-1.725834 28.324127 30.777479 0.000000 0.000000 0.000000 26.944031 16.685628 -8.077009 10.985504 10.921121 3.348633 10.366937 14.001858 3.160694 -25.163296 13.389157 -32.414944 -21.956799 -6.355311 3.088762 0.000000 0.000000 0.000000 27.982435 15.563284 -7.991481 -76.866614 -12.927259 4.445934 70.624798 -35.533677 -8.773241 -6.492398 2.323338 -0.231420 -12.672047 8.699106 7.480912 0.000000 0.000000 0.000000 30.249590 10.113479 -7.242667 5.353010 0.432649 2.402072 6.675165 -0.415419 3.772666 1.202799 -1.551311 1.467006 0.000000 0.000000 0.000000 8.466009 0.109284 3.261191 -7.733460 -0.653587 -0.748658 -6.692293 5.595454 3.039098 0.000000 0.000000 0.000000 9.713793 -0.327708 3.345964 2.808737 -20.303273 4.610336 2.237381 -1.483761 -3.714668 -42.684594 -23.547671 -40.049460 99.467635 -65.521363 111.095711 0.000000 0.000000 0.000000 8.507335 0.242552 3.794626 3.477596 10.305559 -3.009035 3.104426 7.789102 0.598827 -49.213395 14.604736 37.313860 119.194424 47.638152 -139.713145 0.000000 0.000000 0.000000 
-1.739635 28.199837 30.921106 0.000000 0.000000 0.000000 27.353391 16.666802 -8.160349 10.274403 10.848543 3.778486 11.357230 14.030888 3.093310 -25.412656 13.486685 -32.826084 -22.860875 -6.537168 3.177479 0.000000 0.000000 0.000000 28.390856 15.595651 -8.085600 -77.685889 -13.524254 4.219278 71.503188 -35.565604 -8.859256 -6.904178 2.439525 -0.268472 -13.225251 8.547504 7.667716 0.000000 0.000000 0.000000 30.619868 10.099242 -7.298717 5.405016 0.475326 2.393963 6.118902 -0.381503 3.750827 1.171211 -1.574860 1.477194 0.000000 0.000000 0.000000 7.880619 0.124389 3.241050 -7.872803 -0.587790 -0.875087 -6.844754 5.446016 3.096102 0.000000 0.000000 0.000000 9.109540 -0.301678 3.318072 2.896168 -20.338790 5.049303 2.275026 -1.476074 -3.675148 -43.447752 -23.970414 -40.103196 96.645421 -65.898218 108.232933 0.000000 0.000000 0.000000 7.913630 0.265573 3.756189 3.521060 10.105404 -3.482081 3.193983 7.766752 0.552368 -50.073763 14.248155 37.861747 118.371317 48.250171 -138.691117 0.000000 0.000000 0.000000 
-1.752563 28.061670 31.064583 0.000000 0.000000 0.000000 27.809627 16.623683 -8.254139 9.568859 10.726011 4.247450 12.360651 14.034342 3.042410 -25.632491 13.568514 -33.343074 -23.866527 -6.732575 3.307493 0.000000 0.000000 0.000000 28.808416 15.615682 -8.183460 -78.608661 -14.095379 3.975957 72.540769 -35.584603 -8.863223 -7.246773 2.536628 -0.334155 -13.941490 8.345221 7.905520 0.000000 0.000000 0.000000 31.016968 10.058797 -7.351532 5.435009 0.509888 2.374957 5.559749 -0.350990 3.724427 1.129095 -1.623502 1.489700 0.000000 0.000000 0.000000 7.285017 0.136731 3.212714 -7.963067 -0.530883 -0.990596 -7.031656 5.285061 3.157337 0.000000 0.000000 0.000000 8.497292 -0.279522 3.288271 2.983729 -20.392563 5.506801 2.311966 -1.452575 -3.664741 -44.177793 -24.406851 -40.104801 93.814649 -66.248955 105.347998 0.000000 0.000000 0.000000 7.309540 0.284475 3.715438 3.559818 9.929093 -3.937044 3.267940 7.734186 0.494869 -50.866744 13.848454 38.396489 117.537174 48.853102 -137.679784 0.000000 0.000000 0.000000 
-1.765623 27.912817 31.210552 0.000000 0.000000 0.000000 28.303360 16.561747 -8.352530 8.869517 10.573838 4.738629 13.347490 14.023444 3.010517 -25.837383 13.641291 -33.916284 -24.903233 -6.928622 3.451750 0.000000 0.000000 0.000000 29.262716 15.624116 -8.284487 -79.653646 -14.602203 3.722772 73.691464 -35.554205 -8.829642 -7.460675 2.624850 -0.372674 -14.850600 8.074132 8.173409 0.000000 0.000000 0.000000 31.434918 9.995473 -7.401198 5.427513 0.537483 2.351443 5.006902 -0.323071 3.698343 1.116152 -1.683186 1.508372 0.000000 0.000000 0.000000 6.693908 0.145846 3.181982 -7.999194 -0.494996 -1.088771 -7.245940 5.100418 3.197523 0.000000 0.000000 0.000000 7.888159 -0.262406 3.261528 3.073933 -20.478789 5.961141 2.336260 -1.443825 -3.665552 -44.829185 -24.838010 -40.037650 90.983980 -66.586592 102.456690 0.000000 0.000000 0.000000 6.707445 0.300437 3.679440 3.590072 9.786242 -4.345880 3.312074 7.708272 0.430241 -51.551109 13.459232 38.888242 116.662595 49.447711 -136.643207 0.000000 0.000000 0.000000 
-1.775153 27.756987 31.362949 0.000000 0.000000 0.000000 28.829583 16.477239 -8.445786 8.192917 10.416610 5.219772 14.279958 14.012575 2.996942 -26.030611 13.719868 -34.498763 -25.896421 -7.113088 3.591146 0.000000 0.000000 0.000000 29.777292 15.621901 -8.388962 -80.816560 -15.027767 3.467272 74.886549 -35.464494 -8.804910 -7.552443 2.697059 -0.363064 -15.887005 7.745919 8.416540 0.000000 0.000000 0.000000 31.884477 9.898067 -7.443188 5.371703 0.560586 2.325399 4.466271 -0.296769 3.672777 1.111771 -1.749627 1.521672 0.000000 0.000000 0.000000 6.118327 0.153272 3.151196 -7.969277 -0.481347 -1.163505 -7.481160 4.902411 3.186416 0.000000 0.000000 0.000000 7.292531 -0.248841 3.237140 3.163847 -20.602907 6.379558 2.367842 -1.455808 -3.664918 -45.356612 -25.266907 -39.899168 88.141610 -66.899545 99.544925 0.000000 0.000000 0.000000 6.114340 0.314621 3.652218 3.611542 9.695201 -4.670625 3.328367 7.674633 0.348033 -52.099539 13.114088 39.297456 115.686725 50.044878 -135.516841 0.000000 0.000000 0.000000 
-1.781649 27.597862 31.523254 0.000000 0.000000 0.000000 29.393791 16.375245 -8.527364 7.543962 10.282790 5.668585 15.124004 14.020755 2.992526 -26.228603 13.819857 -35.037890 -26.786183 -7.275424 3.708951 0.000000 0.000000 0.000000 30.361058 15.608978 -8.493322 -82.073233 -15.376190 3.200432 76.095117 -35.318765 -8.793781 -7.561574 2.753881 -0.323226 -16.915090 7.395923 8.590070 0.000000 0.000000 0.000000 32.370237 9.775345 -7.473917 5.266337 0.581070 2.299849 3.937654 -0.269661 3.645033 1.118933 -1.819341 1.549323 0.000000 0.000000 0.000000 5.558478 0.161394 3.119468 -7.867339 -0.486245 -1.212018 -7.732251 4.704536 3.098274 0.000000 0.000000 0.000000 6.710745 -0.236578 3.212594 3.253499 -20.772970 6.740757 2.393666 -1.506719 -3.656488 -45.740025 -25.695754 -39.685465 85.284884 -67.167097 96.611940 0.000000 0.000000 0.000000 5.531591 0.329270 3.631204 3.621412 9.653270 -4.893304 3.299764 7.647253 0.266507 -52.506874 12.850655 39.580506 114.590446 50.646293 -134.271260 0.000000 0.000000 0.000000 
-1.783475 27.438078 31.683777 0.000000 0.000000 0.000000 29.981050 16.256212 -8.595481 6.926883 10.190373 6.069300 15.868606 14.057097 2.985856 -26.420055 13.935950 -35.520863 -27.603887 -7.413971 3.802608 0.000000 0.000000 0.000000 31.005374 15.566256 -8.592340 -83.394568 -15.686212 2.921055 77.311895 -35.134316 -8.782688 -7.533915 2.798307 -0.283649 -17.846007 7.070503 8.663872 0.000000 0.000000 0.000000 32.894273 9.634514 -7.490596 5.118974 0.602142 2.273624 3.417141 -0.237666 3.608272 1.123844 -1.866882 1.542597 0.000000 0.000000 0.000000 5.011732 0.172494 3.080983 -7.687176 -0.507086 -1.234444 -7.994574 4.520190 2.919491 0.000000 0.000000 0.000000 6.140378 -0.223697 3.181566 3.339084 -20.982874 7.030054 2.411125 -1.581903 -3.639634 -45.988306 -26.121106 -39.390746 82.466782 -67.361381 93.708741 0.000000 0.000000 0.000000 4.956111 0.345228 3.607485 3.616967 9.653094 -4.996138 3.236772 7.625940 0.170404 -52.802027 12.674181 39.719787 113.441212 51.231118 -132.958143 0.000000 0.000000 0.000000 
